<svg version="1.2" xmlns="http://www.w3.org/2000/svg" viewBox="0 0 637 638" width="637" height="638"><style>.a{fill:none;stroke:#7a7477;stroke-width:26.8}.b{fill:#7a7477}</style><path class="a" d="m623.4 319.1c0 168.4-136.5 304.9-304.9 304.9-168.3 0-304.8-136.5-304.8-304.9 0-168.3 136.5-304.8 304.8-304.8 168.4 0 304.9 136.5 304.9 304.8z"/><path class="b" d="m366.4 407.6v214c-15.6 2.4-31.6 3.7-47.9 3.7-16.2 0-32.2-1.3-47.8-3.7v-214h-77.7v-88.5h77.7v-67.4c0-76.8 45.7-119.1 115.6-119.1 33.5 0 68.6 5.9 68.6 5.9v75.4h-38.6c-38.1 0-49.9 23.6-49.9 47.8v57.4h84.9l-13.6 88.5z"/></svg>