<svg version="1.2" xmlns="http://www.w3.org/2000/svg" viewBox="0 0 955 980" width="955" height="980"><style>.a{fill:#7a7477}</style><path fill-rule="evenodd" class="a" d="m955 490c0 270.6-213.7 490-477.4 490-263.6 0-477.4-219.4-477.4-490 0-270.6 213.7-490 477.4-490 263.7 0 477.4 219.4 477.4 490zm-43.1 11.1c5.8-256.1-193.2-461.5-434.9-460.7-117.8 0.4-185.6 33.1-264.4 101.4-98 85.1-166.1 206.3-163.5 348.2 3.8 202.9 109.3 362.9 289.1 424.2 22.7 4.3 27.8 5.8 27.8-6.5 0-11-0.4-40.2-0.6-78.9-125.8 28-152.4-62.2-152.4-62.2-20.5-53.6-50.2-67.8-50.2-67.8-41.1-28.8 3.1-28.2 3.1-28.2 45.4 3.3 69.3 47.8 69.3 47.8 40.3 70.9 105.8 50.4 131.6 38.6 4.1-30 15.8-50.4 28.7-62-100.4-11.7-206-51.5-206-229.2 0-50.7 17.6-92.1 46.5-124.5-4.7-11.7-20.2-58.8 4.4-122.7 0 0 38-12.4 124.4 47.6 36-10.4 74.7-15.5 113.2-15.7 38.4 0.2 77.1 5.4 113.2 15.7 86.4-60.1 124.3-47.6 124.3-47.6 24.7 63.9 9.1 111 4.5 122.7 29 32.4 46.5 73.9 46.5 124.5 0 178.1-105.7 217.4-206.5 228.8 16.2 14.4 30.7 42.7 30.7 86 0 62-0.5 112-0.5 127.2 0 12.4 4.3 7.6 27.3 3 179.5-61.4 290.1-218.4 294.4-409.7z"/></svg>