<svg version="1.2" xmlns="http://www.w3.org/2000/svg" viewBox="0 0 641 639" width="641" height="639"><style>.a{fill:none;stroke:#7a7477;stroke-width:26.8}.b{fill:#7a7477}</style><path class="a" d="m626.7 319.5c0 169.1-137.1 306.1-306.2 306.1-169 0-306.1-137-306.1-306.1 0-169.1 137.1-306.2 306.1-306.2 169.1 0 306.2 137.1 306.2 306.2z"/><path class="b" d="m192.1 262.5h59.3v190.4h-59.3zm29.7-94.6c19 0 34.3 15.4 34.3 34.3 0 18.9-15.3 34.3-34.3 34.3-19 0-34.4-15.4-34.4-34.3 0-18.9 15.4-34.3 34.4-34.3z"/><path class="b" d="m288.6 262.5h56.8v26h0.8c7.9-15 27.2-30.8 56-30.8 60 0 71 39.5 71 90.8v104.4h-59.1v-92.6c0-22.1-0.5-50.5-30.8-50.5-30.8 0-35.5 24.1-35.5 48.9v94.2h-59.2z"/></svg>